<svg version="1.1" xmlns="http://www.w3.org/2000/svg" xmlns:xlink="http://www.w3.org/1999/xlink" width="400" height="100.92067988668555" viewBox="0, 0, 400,100.92067988668555">
                        <g id="svgg">
                            <path id="path0" d="M279.631 77.989 C 279.107 78.062,278.469 78.206,278.214 78.309 C 277.959 78.413,277.600 78.519,277.417 78.546 C 276.927 78.618,275.325 79.468,274.604 80.038 C 274.036 80.487,273.012 81.537,272.409 82.287 C 270.932 84.127,269.909 88.295,270.312 90.833 C 270.597 92.630,270.911 94.000,271.038 94.000 C 271.109 94.000,271.167 94.103,271.167 94.228 C 271.167 95.589,275.128 99.833,276.399 99.833 C 276.523 99.833,276.972 99.987,277.398 100.176 C 279.120 100.937,283.778 101.000,285.513 100.285 C 286.116 100.037,286.673 99.833,286.751 99.833 C 287.005 99.833,289.066 98.366,289.792 97.669 L 290.500 96.988 290.500 92.841 C 290.500 90.560,290.454 88.575,290.399 88.430 C 290.310 88.199,289.734 88.167,285.652 88.167 L 281.006 88.167 280.910 88.551 C 280.857 88.762,280.837 89.343,280.865 89.842 L 280.917 90.750 284.375 90.795 L 287.833 90.840 287.833 93.311 C 287.833 95.858,287.707 96.333,287.029 96.333 C 286.921 96.333,286.833 96.403,286.833 96.488 C 286.833 96.682,285.204 97.460,284.185 97.752 C 279.653 99.051,274.284 96.286,273.595 92.300 C 273.542 91.997,273.429 91.453,273.343 91.089 C 272.858 89.050,273.664 85.335,274.897 83.917 C 275.137 83.642,275.576 83.138,275.874 82.796 C 276.173 82.455,276.623 82.090,276.875 81.984 C 277.127 81.879,277.333 81.714,277.333 81.619 C 277.333 81.523,277.383 81.494,277.443 81.554 C 277.503 81.614,277.646 81.586,277.760 81.491 C 279.591 79.972,285.292 80.657,287.645 82.678 L 288.250 83.198 289.118 82.246 C 290.025 81.252,290.039 80.722,289.167 80.423 C 289.029 80.376,288.710 80.146,288.458 79.912 C 288.206 79.678,288.000 79.528,288.000 79.579 C 288.000 79.629,287.691 79.476,287.313 79.237 C 285.653 78.189,282.210 77.630,279.631 77.989 M333.750 78.004 C 333.108 78.078,332.265 78.254,331.875 78.395 C 331.485 78.536,331.167 78.613,331.167 78.566 C 331.167 78.436,329.160 79.514,328.511 79.994 C 327.737 80.565,326.500 81.794,326.500 81.991 C 326.500 82.078,326.400 82.210,326.278 82.283 C 325.855 82.537,324.858 84.655,324.474 86.116 C 323.754 88.858,324.060 92.534,325.187 94.689 C 325.397 95.089,325.572 95.469,325.576 95.532 C 325.628 96.336,328.286 98.860,329.917 99.655 C 334.137 101.711,340.856 100.892,343.116 98.045 C 343.226 97.907,343.544 97.543,343.824 97.235 C 344.104 96.927,344.333 96.610,344.333 96.530 C 344.333 96.450,344.481 96.251,344.662 96.087 C 344.843 95.923,345.041 95.631,345.101 95.436 C 345.162 95.242,345.392 94.708,345.614 94.250 C 346.895 91.599,346.768 86.918,345.335 83.974 C 344.058 81.353,342.920 80.227,340.083 78.784 C 338.806 78.134,335.821 77.766,333.750 78.004 M299.333 89.410 L 299.333 100.513 300.792 100.465 L 302.250 100.417 302.295 96.458 L 302.339 92.500 304.853 92.500 L 307.366 92.500 307.861 93.030 C 308.134 93.322,308.445 93.686,308.553 93.840 C 308.661 93.993,309.209 94.636,309.771 95.268 C 310.332 95.900,310.970 96.627,311.187 96.884 C 311.405 97.141,311.996 97.808,312.500 98.366 C 313.004 98.924,313.392 99.463,313.361 99.565 C 313.331 99.667,313.358 99.698,313.421 99.634 C 313.485 99.571,313.723 99.739,313.950 100.009 C 314.337 100.469,317.833 100.826,317.833 100.406 C 317.833 100.267,317.019 99.223,316.429 98.604 C 314.755 96.849,312.802 94.667,312.906 94.667 C 312.951 94.667,312.634 94.301,312.202 93.855 C 310.716 92.319,310.727 92.434,312.026 92.100 C 312.651 91.939,313.206 91.738,313.258 91.653 C 313.310 91.569,313.490 91.500,313.658 91.500 C 314.100 91.500,315.576 90.114,315.918 89.378 C 316.079 89.033,316.349 88.459,316.518 88.103 C 317.958 85.067,316.252 80.676,312.979 78.992 C 311.977 78.476,311.644 78.449,305.375 78.377 L 299.333 78.308 299.333 89.410 M354.700 86.125 C 354.754 93.571,354.772 93.957,355.108 94.833 C 355.802 96.649,355.920 96.909,356.167 97.170 C 356.304 97.316,356.604 97.660,356.833 97.936 C 357.063 98.211,357.550 98.657,357.917 98.926 C 358.283 99.195,358.621 99.459,358.667 99.512 C 359.715 100.734,364.989 101.195,367.250 100.261 C 369.921 99.158,371.715 97.211,372.406 94.667 C 372.713 93.539,372.750 92.513,372.750 85.167 L 372.750 78.417 371.292 78.369 L 369.833 78.320 369.832 85.619 C 369.831 94.247,369.794 94.489,368.167 96.308 C 366.128 98.587,361.794 98.715,359.583 96.560 C 358.981 95.974,358.305 95.167,358.415 95.167 C 358.459 95.167,358.347 94.884,358.167 94.538 C 357.580 93.411,357.500 92.299,357.500 85.227 L 357.500 78.333 356.072 78.333 L 354.643 78.333 354.700 86.125 M382.333 89.407 L 382.333 100.500 383.750 100.500 L 385.167 100.500 385.167 96.917 L 385.167 93.333 389.542 93.308 C 394.289 93.280,394.064 93.290,394.667 93.097 C 400.189 91.337,401.861 84.464,397.776 80.321 C 396.020 78.539,395.643 78.462,388.292 78.380 L 382.333 78.314 382.333 89.407 M337.833 80.995 C 338.246 81.100,338.927 81.407,339.348 81.677 C 339.768 81.946,340.181 82.167,340.265 82.168 C 340.984 82.172,343.053 85.346,343.417 87.003 C 343.565 87.674,343.562 91.191,343.414 91.717 C 342.906 93.519,341.269 96.142,340.407 96.535 C 340.183 96.637,340.000 96.770,340.000 96.830 C 340.000 96.891,339.644 97.097,339.208 97.287 C 334.676 99.272,329.809 97.675,327.915 93.583 C 326.511 90.549,326.895 85.885,328.719 83.839 C 328.965 83.562,329.167 83.296,329.167 83.246 C 329.167 83.082,330.376 82.089,331.030 81.716 C 331.581 81.402,332.544 81.085,333.917 80.767 C 334.463 80.640,337.026 80.790,337.833 80.995 M311.684 81.457 C 314.703 83.335,314.803 87.563,311.869 89.288 L 311.083 89.750 306.708 89.806 L 302.333 89.862 302.333 85.415 L 302.333 80.968 306.708 81.025 C 310.899 81.081,311.109 81.099,311.684 81.457 M394.500 81.496 C 396.924 82.802,397.793 85.653,396.544 88.205 C 396.292 88.721,395.448 89.667,395.240 89.667 C 395.186 89.667,395.032 89.777,394.897 89.913 C 394.303 90.506,393.061 90.667,389.053 90.667 L 385.167 90.667 385.167 85.920 L 385.167 81.173 388.958 81.128 C 392.981 81.081,393.833 81.137,394.500 81.496 " stroke="none" fill="#6c6c64" fill-rule="evenodd"></path>
                            <path id="path1" d="M23.583 0.527 C 20.432 1.942,17.351 3.531,15.234 4.833 C 14.712 5.154,14.090 5.522,13.851 5.651 C 13.612 5.779,13.379 5.934,13.333 5.994 C 13.287 6.054,12.716 6.458,12.064 6.892 C 11.412 7.326,10.705 7.865,10.493 8.091 C 10.282 8.316,10.040 8.500,9.956 8.500 C 9.478 8.500,3.833 14.303,3.833 14.794 C 3.833 14.885,3.724 15.050,3.591 15.160 C 2.873 15.756,1.347 19.394,1.001 21.333 C 0.927 21.746,0.702 22.758,0.501 23.583 C 0.198 24.823,0.125 25.675,0.080 28.500 C 0.047 30.575,0.075 31.515,0.152 30.894 C 0.351 29.290,1.661 25.583,2.176 25.167 C 2.232 25.121,2.479 24.738,2.724 24.316 C 2.969 23.894,3.319 23.414,3.501 23.249 C 3.684 23.083,3.833 22.874,3.833 22.783 C 3.833 22.693,3.982 22.461,4.164 22.268 C 5.193 21.175,8.890 17.527,9.285 17.214 C 9.541 17.011,10.087 16.570,10.500 16.234 C 11.345 15.546,13.009 14.362,14.433 13.436 C 14.699 13.263,15.238 12.907,15.630 12.644 C 16.022 12.382,16.398 12.167,16.466 12.167 C 16.534 12.167,16.850 11.990,17.170 11.774 C 18.248 11.044,21.222 9.496,23.659 8.395 C 24.993 7.793,26.462 7.128,26.925 6.918 C 27.614 6.605,27.824 6.404,28.084 5.810 C 28.259 5.410,28.761 4.427,29.201 3.625 C 30.172 1.852,30.171 1.990,29.208 1.552 C 25.266 -0.241,25.286 -0.237,23.583 0.527 M49.417 8.928 C 48.592 9.051,47.334 9.229,46.623 9.322 C 42.147 9.908,33.949 12.294,28.833 14.499 C 24.997 16.153,19.703 18.807,18.987 19.436 C 18.842 19.563,18.665 19.667,18.594 19.667 C 18.523 19.667,17.779 20.117,16.941 20.666 C 4.457 28.854,-0.677 37.242,2.455 44.333 C 4.228 48.347,4.601 49.060,6.118 51.333 C 7.376 53.217,7.805 53.751,7.948 53.608 C 8.006 53.550,7.940 53.370,7.800 53.209 C 7.661 53.048,7.502 52.767,7.448 52.583 C 7.394 52.400,7.198 51.837,7.013 51.333 C 6.402 49.663,6.716 46.606,7.688 44.782 C 8.774 42.742,9.075 42.211,9.270 41.987 C 9.397 41.842,9.500 41.649,9.500 41.558 C 9.500 41.466,9.688 41.215,9.917 41.000 C 10.146 40.785,10.333 40.556,10.333 40.491 C 10.333 40.095,15.917 34.500,16.312 34.500 C 16.358 34.500,16.550 34.355,16.739 34.178 C 17.077 33.861,17.342 33.661,18.949 32.510 C 19.390 32.194,19.775 31.875,19.806 31.801 C 19.836 31.727,19.942 31.667,20.040 31.667 C 20.138 31.667,20.464 31.479,20.765 31.250 C 21.065 31.021,21.362 30.833,21.423 30.833 C 21.485 30.833,21.809 30.624,22.143 30.368 C 22.477 30.112,22.938 29.813,23.167 29.704 C 23.396 29.595,24.033 29.244,24.583 28.924 C 25.844 28.192,31.946 25.167,32.164 25.167 C 32.253 25.167,32.721 24.985,33.205 24.762 C 34.881 23.991,38.778 22.599,41.083 21.948 C 44.583 20.960,45.620 20.686,46.250 20.583 C 46.617 20.523,47.629 20.324,48.500 20.141 C 49.371 19.959,50.708 19.744,51.471 19.663 C 53.031 19.500,52.966 19.543,56.524 16.303 C 57.774 15.165,59.041 14.081,59.185 14.028 C 59.576 13.881,59.214 13.559,57.090 12.167 C 54.889 10.723,54.201 10.268,53.917 10.067 C 51.739 8.533,51.855 8.563,49.417 8.928 M133.250 10.362 C 131.011 11.208,126.299 12.857,125.418 13.103 C 124.111 13.468,123.136 14.149,122.708 14.996 L 122.333 15.737 122.333 37.256 C 122.333 63.074,122.274 62.252,124.376 65.366 C 127.386 69.824,136.798 71.776,144.373 69.512 C 144.947 69.340,145.698 69.151,146.042 69.092 C 146.850 68.953,146.849 68.936,145.756 64.833 C 145.548 64.054,145.255 62.929,145.104 62.333 C 144.359 59.395,144.237 59.002,144.075 59.001 C 143.979 59.001,143.229 59.148,142.408 59.330 C 137.911 60.324,135.770 59.312,135.178 55.914 C 134.989 54.825,134.918 37.575,135.101 37.097 C 135.190 36.865,135.803 36.833,140.270 36.833 L 145.338 36.833 145.294 31.708 L 145.250 26.583 140.125 26.539 L 135.000 26.495 135.000 18.164 C 135.000 11.604,134.956 9.836,134.792 9.846 C 134.677 9.852,133.983 10.085,133.250 10.362 M209.667 10.566 C 205.707 11.490,201.000 14.151,201.000 15.465 C 201.000 15.554,200.881 15.724,200.736 15.845 C 200.253 16.246,199.364 18.253,198.890 20.013 L 198.423 21.750 198.374 45.458 L 198.326 69.167 204.746 69.167 L 211.167 69.167 211.167 53.000 L 211.167 36.833 216.083 36.833 L 221.000 36.833 221.000 31.667 L 221.000 26.500 216.060 26.500 L 211.119 26.500 211.207 24.663 C 211.381 20.976,212.874 20.047,217.905 20.496 C 220.222 20.703,219.987 20.873,220.486 18.620 C 220.694 17.683,221.014 16.279,221.197 15.500 C 221.509 14.174,221.823 12.482,221.888 11.773 C 221.981 10.767,212.724 9.853,209.667 10.566 M92.417 25.440 C 92.233 25.485,91.306 25.709,90.356 25.937 C 85.107 27.198,80.412 30.418,79.393 33.455 C 79.339 33.617,79.100 34.237,78.863 34.833 C 78.277 36.302,78.118 40.874,78.590 42.652 C 79.682 46.764,82.191 49.300,86.750 50.897 C 88.822 51.623,93.299 52.865,94.917 53.162 C 95.283 53.229,96.521 53.485,97.667 53.731 C 98.813 53.976,100.121 54.252,100.574 54.343 C 104.582 55.150,104.421 58.856,100.333 59.915 C 96.903 60.804,91.588 60.188,88.417 58.535 C 88.142 58.392,87.804 58.224,87.667 58.162 C 87.529 58.101,87.192 57.922,86.917 57.765 C 86.642 57.608,86.079 57.324,85.667 57.133 C 85.254 56.942,84.879 56.732,84.833 56.666 C 84.787 56.600,84.263 56.305,83.668 56.011 L 82.586 55.477 81.927 56.197 C 81.259 56.926,76.733 61.742,76.038 62.463 C 75.830 62.678,75.710 62.935,75.770 63.032 C 76.104 63.572,79.582 66.333,79.929 66.333 C 80.037 66.333,80.204 66.427,80.299 66.542 C 81.056 67.454,86.949 69.661,89.568 70.012 C 96.961 71.005,101.410 70.821,105.696 69.348 C 112.464 67.021,115.833 62.604,115.833 56.060 C 115.833 53.104,114.934 50.033,113.643 48.583 C 112.522 47.324,111.860 46.667,111.712 46.667 C 111.618 46.667,111.449 46.557,111.338 46.422 C 110.352 45.234,106.442 43.965,99.250 42.499 C 90.932 40.803,89.195 39.556,91.650 37.040 C 94.170 34.458,103.456 35.521,107.417 38.845 C 107.600 38.999,107.924 39.215,108.138 39.325 C 108.559 39.542,108.377 39.685,110.266 37.652 C 110.642 37.248,111.544 36.242,112.269 35.417 C 112.995 34.592,113.943 33.542,114.375 33.083 C 115.326 32.075,115.341 31.900,114.542 31.140 C 111.924 28.652,108.165 26.917,103.000 25.814 C 101.305 25.452,93.488 25.176,92.417 25.440 M167.750 25.506 C 164.326 25.857,159.492 27.555,158.495 28.755 C 158.384 28.890,158.207 29.000,158.103 29.000 C 157.797 29.000,155.249 31.425,154.192 32.723 C 152.985 34.203,152.485 34.991,151.188 37.451 C 149.277 41.074,148.502 48.222,149.510 52.917 C 149.706 53.833,149.929 54.885,150.005 55.255 C 150.140 55.911,150.298 56.384,150.958 58.096 C 154.961 68.490,168.732 73.309,181.083 68.638 C 182.285 68.184,182.705 67.991,184.024 67.290 C 185.746 66.374,189.833 62.721,189.833 62.097 C 189.833 61.895,189.270 61.399,187.750 60.261 C 187.567 60.124,187.103 59.765,186.721 59.464 C 185.518 58.519,183.810 57.258,183.459 57.057 C 183.273 56.950,183.076 56.796,183.019 56.715 C 182.850 56.469,181.731 55.667,181.557 55.667 C 181.468 55.667,180.905 56.135,180.305 56.708 C 176.472 60.369,171.850 61.251,167.155 59.220 C 164.750 58.179,162.333 54.722,162.333 52.323 L 162.333 51.835 176.875 51.793 L 191.417 51.750 191.469 49.833 C 191.655 43.044,189.508 36.351,185.776 32.082 C 184.711 30.863,182.652 29.000,182.370 29.000 C 182.281 29.000,182.109 28.881,181.988 28.736 C 181.477 28.120,177.548 26.440,175.973 26.165 C 175.484 26.079,174.483 25.903,173.750 25.772 C 171.954 25.453,169.374 25.339,167.750 25.506 M239.833 25.600 C 236.678 26.156,235.414 26.444,233.967 26.934 C 232.058 27.581,229.229 28.944,228.469 29.584 C 228.197 29.813,227.916 30.000,227.845 30.000 C 227.643 30.000,224.816 32.865,224.869 33.016 C 224.957 33.264,232.316 40.167,232.492 40.167 C 232.588 40.167,232.962 39.871,233.323 39.510 C 233.920 38.914,236.145 37.333,236.389 37.333 C 236.445 37.333,236.923 37.136,237.451 36.894 C 238.642 36.349,240.562 36.105,242.610 36.239 C 246.212 36.473,248.207 38.482,248.602 42.274 L 248.709 43.298 243.563 43.379 C 238.120 43.465,235.557 43.740,233.143 44.497 C 232.560 44.680,231.985 44.830,231.865 44.831 C 231.541 44.834,228.951 46.099,228.119 46.660 C 221.496 51.130,221.298 62.162,227.750 67.278 C 231.517 70.265,239.170 71.358,243.263 69.494 C 243.658 69.314,244.031 69.167,244.092 69.167 C 244.152 69.167,244.535 68.942,244.943 68.667 C 245.350 68.392,245.728 68.167,245.783 68.167 C 245.936 68.167,247.326 67.032,248.208 66.188 L 249.000 65.429 249.000 67.298 L 249.000 69.167 255.267 69.167 L 261.535 69.167 261.451 54.292 C 261.362 38.615,261.388 39.142,260.593 36.417 C 258.932 30.719,254.604 27.311,247.250 25.909 C 245.822 25.637,240.810 25.428,239.833 25.600 M292.167 25.607 C 288.944 26.244,286.425 27.321,284.860 28.732 C 283.822 29.668,283.000 30.525,283.000 30.671 C 283.000 30.760,282.925 30.833,282.833 30.833 C 282.731 30.833,282.667 30.028,282.667 28.750 L 282.667 26.667 276.500 26.667 L 270.333 26.667 270.333 47.917 L 270.333 69.167 276.662 69.167 L 282.990 69.167 283.037 55.792 L 283.083 42.417 283.573 41.333 C 286.466 34.933,294.874 34.431,296.389 40.568 C 296.492 40.983,296.595 46.696,296.654 55.167 L 296.750 69.083 303.083 69.083 L 309.417 69.083 309.467 54.750 C 309.520 39.556,309.466 38.084,308.760 35.394 C 307.508 30.624,304.080 27.217,299.303 25.994 C 297.940 25.645,293.258 25.391,292.167 25.607 M361.417 25.601 C 361.233 25.646,360.422 25.833,359.614 26.016 C 357.096 26.586,355.085 27.732,353.042 29.762 L 351.833 30.962 351.833 28.815 L 351.833 26.667 345.750 26.667 L 339.667 26.667 339.667 47.917 L 339.667 69.167 345.911 69.167 L 352.155 69.167 352.207 56.125 C 352.265 41.667,352.247 41.905,353.413 40.143 C 353.644 39.793,353.833 39.465,353.833 39.413 C 353.833 39.117,355.893 37.415,356.853 36.918 C 359.957 35.311,364.071 36.659,365.251 39.669 C 365.967 41.496,365.997 42.160,365.999 55.958 L 366.000 69.167 372.333 69.167 L 378.667 69.167 378.663 54.542 C 378.660 38.471,378.586 36.857,377.745 34.500 C 376.182 30.121,373.186 27.298,368.804 26.074 C 367.288 25.650,362.465 25.341,361.417 25.601 M318.167 47.917 L 318.167 69.167 324.500 69.167 L 330.833 69.167 330.833 47.917 L 330.833 26.667 324.500 26.667 L 318.167 26.667 318.167 47.917 M387.500 47.917 L 387.500 69.167 393.750 69.167 L 400.000 69.167 400.000 47.917 L 400.000 26.667 393.750 26.667 L 387.500 26.667 387.500 47.917 M48.083 29.755 C 47.717 29.876,47.234 29.980,47.010 29.987 C 46.786 29.994,45.961 30.190,45.177 30.422 C 39.015 32.245,34.912 33.893,30.088 36.479 C 26.706 38.293,23.622 40.348,20.864 42.627 C 19.736 43.558,16.167 47.212,16.167 47.436 C 16.167 47.563,16.100 47.667,16.019 47.667 C 15.837 47.667,14.594 49.588,13.971 50.833 C 12.384 54.002,12.348 57.687,13.884 59.698 C 14.415 60.394,15.356 61.378,15.767 61.667 C 19.041 63.969,23.532 66.236,26.500 67.086 C 26.912 67.204,27.461 67.383,27.719 67.484 C 28.286 67.705,28.500 67.715,28.500 67.521 C 28.500 67.441,28.288 67.333,28.030 67.281 C 23.456 66.366,20.836 61.530,22.871 57.756 C 22.968 57.577,23.215 57.112,23.421 56.725 C 24.190 55.280,26.018 53.042,27.401 51.854 C 27.868 51.452,28.648 50.781,29.135 50.363 C 29.621 49.944,30.232 49.472,30.491 49.314 C 30.751 49.156,31.017 48.941,31.081 48.837 C 31.146 48.732,31.361 48.573,31.558 48.483 C 31.755 48.394,32.367 48.023,32.917 47.660 C 33.467 47.296,34.104 46.909,34.333 46.798 C 34.563 46.688,35.064 46.388,35.447 46.132 C 35.830 45.876,36.225 45.667,36.325 45.667 C 36.425 45.667,36.804 45.479,37.167 45.250 C 37.530 45.021,37.884 44.835,37.955 44.838 C 38.026 44.841,38.533 44.622,39.083 44.352 C 41.899 42.972,45.624 41.680,49.935 40.590 C 51.609 40.167,51.628 40.156,52.769 39.020 C 54.687 37.108,57.430 34.262,57.554 34.055 C 57.680 33.843,57.129 33.504,54.000 31.871 C 49.055 29.289,49.267 29.365,48.083 29.755 M172.750 36.080 C 174.274 36.769,174.570 36.959,175.513 37.848 C 176.056 38.360,176.500 38.825,176.500 38.881 C 176.500 38.937,176.712 39.306,176.972 39.700 C 177.452 40.429,178.167 42.405,178.167 43.003 C 178.167 43.328,178.028 43.333,170.258 43.333 L 162.349 43.333 162.592 42.542 C 162.726 42.106,162.923 41.450,163.030 41.083 C 163.137 40.717,163.437 40.094,163.696 39.700 C 163.955 39.306,164.167 38.931,164.168 38.867 C 164.170 38.709,165.442 37.495,166.188 36.941 C 167.803 35.740,171.055 35.313,172.750 36.080 M47.500 49.834 C 46.996 50.012,46.453 50.234,46.294 50.328 C 46.135 50.423,45.890 50.500,45.750 50.500 C 45.611 50.500,45.178 50.643,44.790 50.817 C 44.401 50.991,43.371 51.452,42.500 51.841 C 41.629 52.229,40.804 52.640,40.667 52.755 C 40.529 52.869,40.042 53.160,39.583 53.402 C 39.125 53.644,38.554 53.971,38.314 54.129 C 27.698 61.127,28.582 68.861,40.000 68.886 C 41.826 68.890,43.048 68.803,44.167 68.589 C 45.038 68.422,46.105 68.235,46.539 68.173 C 47.878 67.982,47.790 67.631,46.349 67.415 C 45.324 67.262,43.651 66.350,42.971 65.575 C 41.482 63.879,42.769 61.626,46.417 59.541 C 47.587 58.872,50.259 57.833,50.810 57.833 C 51.077 57.833,52.903 55.787,53.750 54.538 C 53.961 54.227,54.340 53.751,55.009 52.957 L 55.537 52.331 53.588 51.415 C 52.517 50.912,51.590 50.500,51.528 50.499 C 51.467 50.499,50.967 50.274,50.417 50.000 C 49.255 49.421,48.757 49.392,47.500 49.834 M248.768 51.930 C 250.000 56.836,244.294 62.259,239.229 60.996 C 236.498 60.316,235.509 59.307,235.228 56.914 C 234.869 53.858,237.038 52.254,242.083 51.841 C 247.803 51.372,248.631 51.384,248.768 51.930 " stroke="none" fill="#242c54" fill-rule="evenodd"></path>
                            <path id="path2" d="M382.245 89.417 C 382.245 95.558,382.266 98.047,382.292 94.946 C 382.317 91.846,382.317 86.821,382.292 83.780 C 382.266 80.738,382.245 83.275,382.245 89.417 " stroke="none" fill="#5c7060" fill-rule="evenodd"></path>
                            <path id="path3" d="" stroke="none" fill="#345060" fill-rule="evenodd"></path>
                            <path id="path4" d="" stroke="none" fill="#382c60" fill-rule="evenodd"></path>
                        </g>
                    </svg>