<?xml version="1.0" standalone="no"?>
<svg viewBox="0 0 200 200" xmlns="http://www.w3.org/2000/svg">
  <path fill="#FF5050" d="M25,-40.8C39.2,-35.1,62.3,-42.2,72.4,-37.5C82.5,-32.8,79.7,-16.4,71.9,-4.5C64.1,7.4,51.2,14.7,41.2,19.7C31.3,24.7,24.3,27.3,17.9,40.1C11.5,52.8,5.8,75.6,-3.8,82.2C-13.4,88.8,-26.8,79.2,-33.8,66.8C-40.7,54.5,-41.3,39.3,-40.1,27.7C-38.9,16.1,-35.9,8.1,-33.5,1.4C-31.2,-5.3,-29.3,-10.6,-31,-23.1C-32.7,-35.5,-38,-55.2,-33.4,-66.4C-28.8,-77.7,-14.4,-80.6,-4.5,-72.8C5.4,-65,10.8,-46.5,25,-40.8Z" transform="translate(100 100)" />
</svg>
