<?xml version="1.0" encoding="UTF-8" standalone="no"?>
<!-- Created with Inkscape (http://www.inkscape.org/) -->

<svg
   xmlns:dc="http://purl.org/dc/elements/1.1/"
   xmlns:cc="http://creativecommons.org/ns#"
   xmlns:rdf="http://www.w3.org/1999/02/22-rdf-syntax-ns#"
   xmlns:svg="http://www.w3.org/2000/svg"
   xmlns="http://www.w3.org/2000/svg"
   xmlns:sodipodi="http://sodipodi.sourceforge.net/DTD/sodipodi-0.dtd"
   xmlns:inkscape="http://www.inkscape.org/namespaces/inkscape"
   width="615.74011"
   height="144.35291"
   viewBox="0 0 162.91457 38.193374"
   version="1.1"
   id="svg8"
   inkscape:version="0.92.4 (5da689c313, 2019-01-14)"
   sodipodi:docname="logo_salut_normal.svg">
  <defs
     id="defs2" />
  <sodipodi:namedview
     id="base"
     pagecolor="#ffffff"
     bordercolor="#666666"
     borderopacity="1.0"
     inkscape:pageopacity="0.0"
     inkscape:pageshadow="2"
     inkscape:zoom="1.4"
     inkscape:cx="176.60293"
     inkscape:cy="41.000867"
     inkscape:document-units="px"
     inkscape:current-layer="layer1"
     showgrid="false"
     inkscape:pagecheckerboard="true"
     inkscape:window-width="1366"
     inkscape:window-height="705"
     inkscape:window-x="-8"
     inkscape:window-y="-8"
     inkscape:window-maximized="1"
     units="px"
     showborder="true"
     inkscape:snap-bbox="true"
     inkscape:bbox-paths="true"
     inkscape:bbox-nodes="true"
     inkscape:snap-bbox-edge-midpoints="true"
     inkscape:snap-bbox-midpoints="true"
     inkscape:object-paths="true"
     inkscape:snap-intersection-paths="true"
     inkscape:snap-midpoints="true"
     inkscape:snap-object-midpoints="true"
     inkscape:snap-page="true"
     inkscape:showpageshadow="false"
     borderlayer="false"
     showguides="true"
     inkscape:guide-bbox="true"
     inkscape:snap-global="false"
     fit-margin-top="0"
     fit-margin-left="0"
     fit-margin-right="0"
     fit-margin-bottom="0" />
  <metadata
     id="metadata5">
    <rdf:RDF>
      <cc:Work
         rdf:about="">
        <dc:format>image/svg+xml</dc:format>
        <dc:type
           rdf:resource="http://purl.org/dc/dcmitype/StillImage" />
        <dc:title />
      </cc:Work>
    </rdf:RDF>
  </metadata>
  <g
     inkscape:label="Camada 1"
     inkscape:groupmode="layer"
     id="layer1"
     transform="translate(-16.286886,-13.735372)">
    <text
       xml:space="preserve"
       style="font-style:normal;font-variant:normal;font-weight:normal;font-stretch:normal;font-size:18.90994835px;line-height:1.25;font-family:'Arial Rounded MT Bold';-inkscape-font-specification:'Arial Rounded MT Bold, Normal';font-variant-ligatures:normal;font-variant-position:normal;font-variant-caps:normal;font-variant-numeric:normal;font-variant-alternates:normal;font-feature-settings:normal;text-indent:0;text-align:start;text-decoration:none;text-decoration-line:none;text-decoration-style:solid;text-decoration-color:#000000;letter-spacing:0px;word-spacing:0px;text-transform:none;writing-mode:lr-tb;direction:ltr;text-orientation:mixed;dominant-baseline:auto;baseline-shift:baseline;text-anchor:start;white-space:normal;shape-padding:0;opacity:1;vector-effect:none;fill:#4d4d4d;fill-opacity:1;stroke:none;stroke-width:0.4727506;stroke-linecap:butt;stroke-linejoin:miter;stroke-miterlimit:4;stroke-dasharray:none;stroke-dashoffset:0;stroke-opacity:1"
       x="68.420998"
       y="131.29288"
       id="text3995"><tspan
         sodipodi:role="line"
         id="tspan3993"
         x="68.420998"
         y="148.33374"
         style="stroke-width:0.4727506" /></text>
    <g
       id="g4051"
       transform="matrix(1.6901472,0,0,1.6901472,-174.91252,-238.02669)"
       inkscape:export-xdpi="299.9657"
       inkscape:export-ydpi="299.9657">
      <path
         style="font-style:normal;font-variant:normal;font-weight:normal;font-stretch:normal;font-size:18.90994835px;line-height:1.25;font-family:'Good Times';-inkscape-font-specification:'Good Times, Normal';font-variant-ligatures:normal;font-variant-position:normal;font-variant-caps:normal;font-variant-numeric:normal;font-variant-alternates:normal;font-feature-settings:normal;text-indent:0;text-align:start;text-decoration:none;text-decoration-line:none;text-decoration-style:solid;text-decoration-color:#000000;letter-spacing:0px;word-spacing:0px;text-transform:none;writing-mode:lr-tb;direction:ltr;text-orientation:mixed;dominant-baseline:auto;baseline-shift:baseline;text-anchor:start;white-space:normal;shape-padding:0;fill:#003380;fill-opacity:1;stroke:none;stroke-width:5;stroke-linecap:butt;stroke-linejoin:miter;stroke-miterlimit:4;stroke-dasharray:none;stroke-dashoffset:0;stroke-opacity:1"
         d="m 555.98633,571 c -1.43709,0 -2.95952,-0.0578 -4.76953,1.26953 -1.03325,0.75768 -1.88066,1.75749 -2.54688,2.9082 l -12.67578,21.95704 h 3.16602 l 8.5625,-14.17188 6.17382,11.23828 2.0586,-3.56445 4.94336,8.5625 7.05078,-14.98828 -5.4375,-9.03321 c -0.65624,-1.13355 -1.4975,-2.10979 -2.50977,-2.86328 C 558.8608,571.42793 557.41295,571 555.98633,571 Z m -76.18164,0.7168 c -2.81201,0 -5.39927,0.42249 -7.72852,1.30664 -2.26201,0.81271 -4.26174,1.97477 -5.90625,3.50586 l -0.0234,0.0156 -0.0156,0.0156 c -1.59541,1.53842 -2.82657,3.41264 -3.66211,5.52929 l -0.008,0.0156 -0.006,0.0137 c -0.78312,2.06971 -1.1582,4.31223 -1.1582,6.67383 0,2.42188 0.40963,4.72555 1.24804,6.84961 l 0.006,0.0312 0.0156,0.0215 c 0.20771,0.49331 0.43889,0.97261 0.68554,1.43946 h 45.36914 l 8.98438,13.41992 3.5625,-6.48438 c -0.80823,-2.47112 -2.09586,-4.59929 -3.93555,-6.2539 l -0.008,-0.008 c -3.31242,-3.01753 -8.00465,-4.36328 -13.67969,-4.36328 h -23.79883 c -1.53036,0 -2.39513,-0.36168 -3.07031,-0.97461 -0.58624,-0.56821 -0.9375,-1.29944 -0.9375,-2.8125 0,-1.525 0.35038,-2.27188 0.94531,-2.84179 l 0.0234,-0.0234 0.0137,-0.0156 c 0.6034,-0.6034 1.4499,-0.99023 3.0918,-0.99023 h 39.81055 v -14.06836 z m 116.51562,0 v 25.41797 h 14.07617 V 571.7168 Z m 51.7461,0 v 25.41797 h 14.36523 V 571.7168 Z m 47.24414,0 v 2.49414 22.92383 h 13.86328 V 571.7168 Z m 15.98242,0 v 14.06836 h 19.72461 v 11.34961 h 14.07812 v -11.34961 h 19.73047 V 571.7168 Z m -140.24024,17.64648 -7.10742,15.11133 7.00977,12.13867 h -27.0586 l -6.96093,12.0625 h 42.42187 15.36133 z m -23.53711,3.60938 -5.53515,9.16796 h -8.87695 l -15.31836,26.53516 h 16.20312 l 16.98438,-29.41211 z m -80.17578,9.16796 c 1.40565,1.10976 2.99894,2.01878 4.76758,2.70899 l 0.0391,0.0156 0.0371,0.008 c 2.30302,0.8225 4.8093,1.21679 7.48438,1.21679 h 23.87305 c 2.0378,0 3.21178,0.46168 3.91406,1.08594 l 0.0391,0.0293 0.0371,0.0391 c 0.68871,0.56572 1.08594,1.32735 1.08594,3.07031 4e-5,1.50618 -0.37265,2.32254 -1.20313,3.09375 l -0.0156,0.0215 -0.0137,0.0156 c -0.71997,0.69328 -1.83274,1.15821 -3.83789,1.15821 h -41.45704 v 14.07812 h 2.50196 38.95508 c 2.94179,0 5.59529,-0.41539 7.94335,-1.30664 2.32933,-0.86672 4.35051,-2.09465 5.96875,-3.71289 l 0.0156,-0.0234 0.0156,-0.0137 c 1.57849,-1.63487 2.77899,-3.58035 3.5586,-5.75195 0.58321,-1.62477 0.93582,-3.34546 1.07422,-5.14258 l -4.08985,7.44336 -12.08398,-18.03321 z m 128.98047,0 v 26.53516 h 2.50196 19.16406 l -4.78711,-14.07812 h -2.80274 v -8.24219 l -1.43359,-4.21485 z m 51.7461,0 v 1.0879 c 0,4.22059 0.55061,8.00374 1.71289,11.33203 v 0.008 l 0.008,0.008 c 1.17778,3.31922 3.0764,6.17133 5.64062,8.40821 2.57745,2.2484 5.82803,3.8563 9.64063,4.88671 h 0.006 c 3.85417,1.02781 8.34611,1.51368 13.50781,1.51368 5.20502,0 9.69494,-0.48341 13.50977,-1.51368 3.85886,-1.02901 7.1366,-2.63253 9.7207,-4.88671 2.56422,-2.23688 4.46285,-5.08899 5.64062,-8.40821 v -0.008 l 0.008,-0.008 c 1.16224,-3.32829 1.71289,-7.11144 1.71289,-11.33203 v -1.0879 h -13.86328 v 1.0879 c 0,2.40846 -0.31673,4.37047 -0.85743,5.87695 l -0.008,0.0234 -0.006,0.0312 c -0.48155,1.44468 -1.23021,2.51641 -2.3457,3.41601 l -0.0156,0.0137 -0.0156,0.0156 c -1.04338,0.86948 -2.6006,1.60907 -4.75391,2.11719 -0.002,4.1e-4 -0.004,0.008 -0.008,0.008 -2.17852,0.46617 -4.99655,0.72461 -8.42969,0.72461 -3.43317,0 -6.25894,-0.25852 -8.4375,-0.72461 -0.004,-9.1e-4 -0.004,-0.008 -0.008,-0.008 -2.14772,-0.50673 -3.72889,-1.25403 -4.83398,-2.14063 -1.07033,-0.89771 -1.84208,-1.9952 -2.3711,-3.46094 -0.50203,-1.5199 -0.78906,-3.48223 -0.78906,-5.89062 v -1.08985 z m 82.95117,0 v 26.53516 h 2.50195 11.57617 v -26.53516 z m -112.5293,12.45704 4.78516,14.07812 h 1.21484 l 4.42774,-14.07812 z m 15.67188,0 -4.42969,14.07812 h 15.62109 v -14.07812 z"
         transform="scale(0.26458333)"
         id="path4047"
         inkscape:connector-curvature="0" />
      <path
         style="color:#000000;font-style:normal;font-variant:normal;font-weight:normal;font-stretch:normal;font-size:medium;line-height:normal;font-family:sans-serif;font-variant-ligatures:normal;font-variant-position:normal;font-variant-caps:normal;font-variant-numeric:normal;font-variant-alternates:normal;font-feature-settings:normal;text-indent:0;text-align:start;text-decoration:none;text-decoration-line:none;text-decoration-style:solid;text-decoration-color:#000000;letter-spacing:normal;word-spacing:normal;text-transform:none;writing-mode:lr-tb;direction:ltr;text-orientation:mixed;dominant-baseline:auto;baseline-shift:baseline;text-anchor:start;white-space:normal;shape-padding:0;clip-rule:nonzero;display:inline;overflow:visible;visibility:visible;opacity:1;isolation:auto;mix-blend-mode:normal;color-interpolation:sRGB;color-interpolation-filters:linearRGB;solid-color:#000000;solid-opacity:1;vector-effect:none;fill:#ff0066;fill-opacity:1;fill-rule:nonzero;stroke:none;stroke-width:1.32291663;stroke-linecap:butt;stroke-linejoin:miter;stroke-miterlimit:4;stroke-dasharray:none;stroke-dashoffset:0;stroke-opacity:1;color-rendering:auto;image-rendering:auto;shape-rendering:auto;text-rendering:auto;enable-background:accumulate"
         d="m 153.1332,148.95866 -5.24805,11.15625 -2.96679,-5.40039 -2.26563,3.75 h -3.75195 l -1.95117,3.55078 -2.37696,-3.55078 h -12.54631 l -8.90045,0.6621 8.90045,0.66212 h 11.83928 l 3.19727,4.77149 2.62109,-4.77149 h 3.71484 l 1.46485,-2.42578 3.11328,5.66602 5.14258,-10.9336 3.53711,7.69336 h 4.46484 l 4.00195,11.76758 3.70118,-11.76758 h 31.6983 l 8.99374,-0.69507 -8.99374,-0.62915 H 167.8539 l -2.77929,8.83594 -3.00391,-8.83594 h -4.56641 z"
         id="path4049"
         inkscape:connector-curvature="0"
         sodipodi:nodetypes="ccccccccccccccccccccccccccccc" />
    </g>
  </g>
</svg>
