<svg width="616" height="145" viewBox="0 0 616 145" fill="none" xmlns="http://www.w3.org/2000/svg">
<g clip-path="url(#clip0)">
<path d="M217.055 13.5323C214.626 13.5323 212.053 13.4347 208.994 15.678C207.248 16.9586 205.816 18.6485 204.69 20.5933L183.266 57.7039H188.617L203.089 33.7514L213.523 52.7457L217.003 46.7213L225.358 61.1932L237.274 35.8608L228.084 20.5933C226.975 18.6775 225.553 17.0275 223.842 15.754C221.914 14.2556 219.467 13.5323 217.055 13.5323ZM88.2972 14.7438C83.5445 14.7438 79.1716 15.4579 75.2348 16.9523C71.4117 18.3259 68.0319 20.2899 65.2524 22.8777L65.2128 22.9041L65.1865 22.9304C62.49 25.5305 60.4092 28.6983 58.997 32.2757L58.9835 32.3021L58.9733 32.3252C57.6497 35.8233 57.0158 39.6135 57.0158 43.605C57.0158 47.6983 57.7081 51.5919 59.1252 55.1818L59.1353 55.2345L59.1617 55.271C59.5127 56.1047 59.9035 56.9148 60.3204 57.7038H137.001L152.186 80.3855L158.207 69.4259C156.841 65.2494 154.665 61.6525 151.555 58.8559L151.542 58.8424C145.943 53.7423 138.013 51.4678 128.421 51.4678H88.1975C85.611 51.4678 84.1494 50.8565 83.0082 49.8206C82.0174 48.8602 81.4237 47.6243 81.4237 45.067C81.4237 42.4896 82.0159 41.2272 83.0214 40.264L83.061 40.2244L83.0842 40.1981C84.104 39.1782 85.5347 38.5244 88.3098 38.5244H155.595V14.7468L88.2972 14.7438ZM285.226 14.7438V57.7039H309.017V14.7438H285.226ZM372.684 14.7438V57.7039H396.964V14.7438H372.684ZM452.534 14.7438V18.9593V57.7039H475.965V14.7438H452.534ZM479.546 14.7438V38.5214H512.884V57.7039H536.678V38.5214H570.025V14.7438H479.546ZM242.52 44.569L230.507 70.1094L242.355 90.6255H196.622L184.857 111.013H256.556H282.519L242.52 44.569ZM202.739 50.6694L193.383 66.1646H178.38L152.49 111.013H179.875L208.582 61.3021L202.739 50.6694ZM67.2297 66.1646C69.6055 68.0402 72.2984 69.5766 75.2877 70.7432L75.3537 70.7696L75.4165 70.7831C79.3089 72.1732 83.5449 72.8397 88.0661 72.8397H128.415C131.859 72.8397 133.844 73.62 135.03 74.6751L135.097 74.7246L135.159 74.7906C136.323 75.7467 136.995 77.034 136.995 79.9799C136.995 82.5255 136.365 83.9053 134.961 85.2088L134.935 85.2451L134.912 85.2715C133.695 86.4432 131.814 87.229 128.425 87.229H58.3566V111.023H62.5852H128.425C133.397 111.023 137.882 110.321 141.85 108.815C145.787 107.35 149.204 105.274 151.939 102.539L151.965 102.5L151.991 102.477C154.659 99.7135 156.688 96.4253 158.006 92.755C158.992 90.0089 159.588 87.1007 159.821 84.0633L152.909 96.6437L132.485 66.1649L67.2297 66.1646ZM285.226 66.1646V111.013H289.454H321.845L313.754 87.2188H309.017V73.2883L306.594 66.1646H285.226ZM372.684 66.1646V68.0033C372.684 75.1367 373.615 81.5308 375.579 87.1561V87.1696L375.593 87.1831C377.583 92.7931 380.792 97.6136 385.126 101.394C389.483 105.194 394.977 107.912 401.42 109.653H401.431C407.945 111.391 415.537 112.212 424.261 112.212C433.058 112.212 440.647 111.395 447.094 109.653C453.616 107.914 459.156 105.204 463.524 101.394C467.858 97.6136 471.066 92.7931 473.057 87.1831V87.1696L473.071 87.1561C475.035 81.5308 475.966 75.1367 475.966 68.0033V66.1646H452.535V68.0033C452.535 72.0739 451.999 75.39 451.085 77.9362L451.072 77.9757L451.062 78.0285C450.248 80.4702 448.983 82.2815 447.097 83.802L447.071 83.8252L447.045 83.8516C445.281 85.3212 442.649 86.5712 439.01 87.43C439.006 87.4307 439.003 87.4435 438.996 87.4435C435.314 88.2314 430.551 88.6682 424.749 88.6682C418.946 88.6682 414.17 88.2312 410.488 87.4435C410.481 87.4419 410.481 87.43 410.475 87.43C406.845 86.5735 404.172 85.3105 402.305 83.812C400.496 82.2947 399.191 80.4397 398.297 77.9624C397.448 75.3935 396.963 72.077 396.963 68.0065V66.1644L372.684 66.1646ZM512.884 66.1646V111.013H517.113H536.678V66.1646H512.884ZM322.693 87.2188L330.781 111.013H332.834L340.317 87.2188H322.693ZM349.181 87.2188L341.694 111.013H368.096V87.2188H349.181Z" fill="url(#paint0_linear)"/>
<path d="M255.565 4.57764e-05L222.041 71.2657L203.089 36.7682L188.616 60.7231H164.649L152.185 83.4053L137.001 60.7231H56.8558L9.15527e-05 64.9525L56.8558 69.1821H132.485L152.909 99.6622L169.652 69.1821H193.382L202.74 53.6863L222.627 89.8806L255.478 20.0373L278.073 69.1821H306.594L332.158 144.353L355.801 69.1821H558.289L615.74 64.7421L558.289 60.7231H349.6L331.846 117.167L312.657 60.7231H283.487L255.565 4.57764e-05Z" fill="url(#paint1_linear)"/>
</g>
<defs>
<linearGradient id="paint0_linear" x1="313.521" y1="13.5317" x2="313.521" y2="112.212" gradientUnits="userSpaceOnUse">
<stop stop-color="#003380" stop-opacity="0.25"/>
<stop offset="1" stop-color="#003380" stop-opacity="0"/>
</linearGradient>
<linearGradient id="paint1_linear" x1="307.87" y1="4.57764e-05" x2="307.87" y2="144.353" gradientUnits="userSpaceOnUse">
<stop stop-color="#FF0066" stop-opacity="0.25"/>
<stop offset="1" stop-color="#FF0066" stop-opacity="0"/>
</linearGradient>
<clipPath id="clip0">
<rect width="615.74" height="144.353" fill="white"/>
</clipPath>
</defs>
</svg>
